<svg xmlns="http://www.w3.org/2000/svg" xmlns:xlink="http://www.w3.org/1999/xlink" viewBox="0 0 1203.98 607.79"><defs><style>.cls-1{fill:#1a1a1a;}.cls-2{fill:url(#linear-gradient);}.cls-3{fill:url(#linear-gradient-2);}.cls-4{fill:url(#linear-gradient-3);}.cls-5{fill:url(#linear-gradient-4);}.cls-6{fill:url(#linear-gradient-5);}.cls-7{fill:url(#linear-gradient-6);}.cls-8{fill:url(#linear-gradient-7);}.cls-9{fill:url(#linear-gradient-8);}.cls-10{fill:url(#linear-gradient-9);}.cls-11{fill:url(#linear-gradient-10);}.cls-12{fill:url(#linear-gradient-11);}.cls-13{fill:url(#linear-gradient-12);}.cls-14{fill:url(#linear-gradient-13);}.cls-15{fill:url(#linear-gradient-14);}.cls-16{fill:url(#linear-gradient-15);}.cls-17{fill:url(#linear-gradient-16);}.cls-18{fill:url(#linear-gradient-17);}.cls-19{fill:url(#linear-gradient-18);}.cls-20{fill:url(#linear-gradient-19);}.cls-21{fill:url(#linear-gradient-20);}.cls-22{fill:url(#linear-gradient-21);}.cls-23{fill:url(#linear-gradient-22);}.cls-24{fill:url(#linear-gradient-23);}.cls-25{fill:url(#linear-gradient-24);}.cls-26{fill:url(#linear-gradient-25);}.cls-27{fill:url(#linear-gradient-26);}.cls-28{fill:url(#linear-gradient-27);}.cls-29{fill:url(#linear-gradient-28);}.cls-30{fill:url(#linear-gradient-29);}.cls-31{fill:url(#linear-gradient-30);}.cls-32{fill:url(#linear-gradient-31);}.cls-33{fill:url(#linear-gradient-32);}.cls-34{fill:none;}.cls-35{fill:#fff;}.cls-36{fill:url(#linear-gradient-33);}.cls-37{fill:url(#linear-gradient-34);}.cls-38{fill:url(#linear-gradient-35);}</style><linearGradient id="linear-gradient" x1="-215.09" y1="349.71" x2="446.62" y2="349.71" gradientUnits="userSpaceOnUse"><stop offset="0.37" stop-color="#0140de"></stop><stop offset="1" stop-color="#51e3cf"></stop></linearGradient><linearGradient id="linear-gradient-2" x1="-204.86" y1="338.98" x2="444.8" y2="338.98" gradientUnits="userSpaceOnUse"><stop offset="0.35" stop-color="#0941df"></stop><stop offset="0.37" stop-color="#0941df"></stop><stop offset="0.69" stop-color="#3197d7"></stop><stop offset="1" stop-color="#57e4d1"></stop></linearGradient><linearGradient id="linear-gradient-3" x1="-194.63" y1="328.33" x2="442.97" y2="328.33" gradientUnits="userSpaceOnUse"><stop offset="0.35" stop-color="#1143e0"></stop><stop offset="0.37" stop-color="#1143e0"></stop><stop offset="0.69" stop-color="#389bd9"></stop><stop offset="1" stop-color="#5ce5d2"></stop></linearGradient><linearGradient id="linear-gradient-4" x1="-184.4" y1="318.35" x2="441.13" y2="318.35" gradientUnits="userSpaceOnUse"><stop offset="0.35" stop-color="#1944e1"></stop><stop offset="0.37" stop-color="#1944e1"></stop><stop offset="0.69" stop-color="#3f9eda"></stop><stop offset="1" stop-color="#62e6d4"></stop></linearGradient><linearGradient id="linear-gradient-5" x1="-174.17" y1="308.99" x2="439.26" y2="308.99" gradientUnits="userSpaceOnUse"><stop offset="0.35" stop-color="#2045e2"></stop><stop offset="0.37" stop-color="#2046e2"></stop><stop offset="0.69" stop-color="#45a2db"></stop><stop offset="1" stop-color="#67e7d5"></stop></linearGradient><linearGradient id="linear-gradient-6" x1="-163.93" y1="299.99" x2="437.38" y2="299.99" gradientUnits="userSpaceOnUse"><stop offset="0.35" stop-color="#2846e3"></stop><stop offset="0.37" stop-color="#2847e3"></stop><stop offset="0.69" stop-color="#4ca5dd"></stop><stop offset="1" stop-color="#6de8d7"></stop></linearGradient><linearGradient id="linear-gradient-7" x1="-153.7" y1="293.2" x2="434.95" y2="293.2" gradientUnits="userSpaceOnUse"><stop offset="0.35" stop-color="#3048e4"></stop><stop offset="0.37" stop-color="#3049e4"></stop><stop offset="0.69" stop-color="#53a9de"></stop><stop offset="1" stop-color="#73e8d8"></stop></linearGradient><linearGradient id="linear-gradient-8" x1="-143.47" y1="287.32" x2="433.2" y2="287.32" gradientUnits="userSpaceOnUse"><stop offset="0.35" stop-color="#3849e5"></stop><stop offset="0.37" stop-color="#384ae5"></stop><stop offset="0.69" stop-color="#5aacdf"></stop><stop offset="1" stop-color="#78e9da"></stop></linearGradient><linearGradient id="linear-gradient-9" x1="-133.24" y1="282.6" x2="431.44" y2="282.6" gradientUnits="userSpaceOnUse"><stop offset="0.35" stop-color="#404ae6"></stop><stop offset="0.37" stop-color="#404ce6"></stop><stop offset="0.69" stop-color="#61b0e1"></stop><stop offset="1" stop-color="#7eeadb"></stop></linearGradient><linearGradient id="linear-gradient-10" x1="-123.01" y1="279.26" x2="429.69" y2="279.26" gradientUnits="userSpaceOnUse"><stop offset="0.35" stop-color="#484be7"></stop><stop offset="0.37" stop-color="#484de7"></stop><stop offset="0.69" stop-color="#68b3e2"></stop><stop offset="1" stop-color="#84ebdd"></stop></linearGradient><linearGradient id="linear-gradient-11" x1="-112.78" y1="277.21" x2="427.94" y2="277.21" gradientUnits="userSpaceOnUse"><stop offset="0.35" stop-color="#504de8"></stop><stop offset="0.37" stop-color="#504fe8"></stop><stop offset="0.69" stop-color="#6fb7e3"></stop><stop offset="1" stop-color="#89ecde"></stop></linearGradient><linearGradient id="linear-gradient-12" x1="-102.55" y1="276.2" x2="426.19" y2="276.2" gradientUnits="userSpaceOnUse"><stop offset="0.35" stop-color="#584ee9"></stop><stop offset="0.37" stop-color="#5850e9"></stop><stop offset="0.69" stop-color="#76bae5"></stop><stop offset="1" stop-color="#8fede0"></stop></linearGradient><linearGradient id="linear-gradient-13" x1="-92.32" y1="276.22" x2="425.11" y2="276.22" gradientUnits="userSpaceOnUse"><stop offset="0.35" stop-color="#5f4fea"></stop><stop offset="0.37" stop-color="#5f51ea"></stop><stop offset="0.69" stop-color="#7cbde6"></stop><stop offset="1" stop-color="#94eee2"></stop></linearGradient><linearGradient id="linear-gradient-14" x1="-82.09" y1="277.86" x2="423.54" y2="277.86" gradientUnits="userSpaceOnUse"><stop offset="0.35" stop-color="#6750eb"></stop><stop offset="0.37" stop-color="#6753eb"></stop><stop offset="0.69" stop-color="#83c1e7"></stop><stop offset="1" stop-color="#9aefe3"></stop></linearGradient><linearGradient id="linear-gradient-15" x1="-72.37" y1="280.79" x2="421.44" y2="280.79" gradientUnits="userSpaceOnUse"><stop offset="0.35" stop-color="#6f52ec"></stop><stop offset="0.37" stop-color="#6f54ec"></stop><stop offset="0.69" stop-color="#8ac4e9"></stop><stop offset="1" stop-color="#a0f0e5"></stop></linearGradient><linearGradient id="linear-gradient-16" x1="-62.2" y1="285.43" x2="419.75" y2="285.43" gradientUnits="userSpaceOnUse"><stop offset="0.35" stop-color="#7753ed"></stop><stop offset="0.37" stop-color="#7756ed"></stop><stop offset="0.69" stop-color="#91c8ea"></stop><stop offset="1" stop-color="#a5f1e6"></stop></linearGradient><linearGradient id="linear-gradient-17" x1="-52.03" y1="292.99" x2="418.05" y2="292.99" gradientUnits="userSpaceOnUse"><stop offset="0.35" stop-color="#7f54ef"></stop><stop offset="0.37" stop-color="#7f57ef"></stop><stop offset="0.69" stop-color="#98cbeb"></stop><stop offset="1" stop-color="#abf1e8"></stop></linearGradient><linearGradient id="linear-gradient-18" x1="-41.84" y1="296.86" x2="416.34" y2="296.86" gradientUnits="userSpaceOnUse"><stop offset="0.35" stop-color="#8755f0"></stop><stop offset="0.37" stop-color="#8759f0"></stop><stop offset="0.69" stop-color="#9fcfec"></stop><stop offset="1" stop-color="#b0f2e9"></stop></linearGradient><linearGradient id="linear-gradient-19" x1="-31.65" y1="290.81" x2="414.63" y2="290.81" gradientUnits="userSpaceOnUse"><stop offset="0.35" stop-color="#8f57f1"></stop><stop offset="0.37" stop-color="#8f5af1"></stop><stop offset="0.69" stop-color="#a6d2ee"></stop><stop offset="1" stop-color="#b6f3eb"></stop></linearGradient><linearGradient id="linear-gradient-20" x1="-21.44" y1="285.09" x2="412.9" y2="285.09" gradientUnits="userSpaceOnUse"><stop offset="0.35" stop-color="#9758f2"></stop><stop offset="0.37" stop-color="#975cf2"></stop><stop offset="0.69" stop-color="#add6ef"></stop><stop offset="1" stop-color="#bcf4ec"></stop></linearGradient><linearGradient id="linear-gradient-21" x1="-11.24" y1="281.31" x2="411.17" y2="281.31" gradientUnits="userSpaceOnUse"><stop offset="0.35" stop-color="#9e59f3"></stop><stop offset="0.37" stop-color="#9e5df3"></stop><stop offset="0.69" stop-color="#b3d9f0"></stop><stop offset="1" stop-color="#c1f5ee"></stop></linearGradient><linearGradient id="linear-gradient-22" x1="-1.03" y1="278.67" x2="409.44" y2="278.67" gradientUnits="userSpaceOnUse"><stop offset="0.35" stop-color="#a65af4"></stop><stop offset="0.37" stop-color="#a65ef4"></stop><stop offset="0.69" stop-color="#badcf2"></stop><stop offset="1" stop-color="#c7f6f0"></stop></linearGradient><linearGradient id="linear-gradient-23" x1="9.19" y1="276.52" x2="407.7" y2="276.52" gradientUnits="userSpaceOnUse"><stop offset="0.35" stop-color="#ae5cf5"></stop><stop offset="0.37" stop-color="#ae60f5"></stop><stop offset="0.69" stop-color="#c1e0f3"></stop><stop offset="1" stop-color="#ccf7f1"></stop></linearGradient><linearGradient id="linear-gradient-24" x1="19.41" y1="274.49" x2="405.96" y2="274.49" gradientUnits="userSpaceOnUse"><stop offset="0.35" stop-color="#b65df6"></stop><stop offset="0.37" stop-color="#b661f6"></stop><stop offset="0.69" stop-color="#c8e3f4"></stop><stop offset="1" stop-color="#d2f8f3"></stop></linearGradient><linearGradient id="linear-gradient-25" x1="29.63" y1="272.89" x2="404.22" y2="272.89" gradientUnits="userSpaceOnUse"><stop offset="0.35" stop-color="#be5ef7"></stop><stop offset="0.37" stop-color="#be63f7"></stop><stop offset="0.69" stop-color="#cfe7f6"></stop><stop offset="1" stop-color="#d8f9f4"></stop></linearGradient><linearGradient id="linear-gradient-26" x1="39.85" y1="271.69" x2="402.47" y2="271.69" gradientUnits="userSpaceOnUse"><stop offset="0.35" stop-color="#c65ff8"></stop><stop offset="0.37" stop-color="#c664f8"></stop><stop offset="0.69" stop-color="#d6eaf7"></stop><stop offset="1" stop-color="#ddfaf6"></stop></linearGradient><linearGradient id="linear-gradient-27" x1="50.07" y1="270.88" x2="400.73" y2="270.88" gradientUnits="userSpaceOnUse"><stop offset="0.35" stop-color="#ce61f9"></stop><stop offset="0.37" stop-color="#ce66f9"></stop><stop offset="0.69" stop-color="#ddeef8"></stop><stop offset="1" stop-color="#e3faf7"></stop></linearGradient><linearGradient id="linear-gradient-28" x1="60.3" y1="270.43" x2="398.98" y2="270.43" gradientUnits="userSpaceOnUse"><stop offset="0.35" stop-color="#d662fa"></stop><stop offset="0.37" stop-color="#d667fa"></stop><stop offset="0.69" stop-color="#e4f1fa"></stop><stop offset="1" stop-color="#e9fbf9"></stop></linearGradient><linearGradient id="linear-gradient-29" x1="70.52" y1="270.34" x2="397.23" y2="270.34" gradientUnits="userSpaceOnUse"><stop offset="0.35" stop-color="#dd63fb"></stop><stop offset="0.37" stop-color="#dd69fb"></stop><stop offset="0.69" stop-color="#eaf5fb"></stop><stop offset="1" stop-color="#eefcfa"></stop></linearGradient><linearGradient id="linear-gradient-30" x1="80.75" y1="270.58" x2="395.49" y2="270.58" gradientUnits="userSpaceOnUse"><stop offset="0.35" stop-color="#e564fc"></stop><stop offset="0.37" stop-color="#e56afc"></stop><stop offset="0.69" stop-color="#f1f8fc"></stop><stop offset="1" stop-color="#f4fdfc"></stop></linearGradient><linearGradient id="linear-gradient-31" x1="90.98" y1="271.14" x2="393.74" y2="271.14" gradientUnits="userSpaceOnUse"><stop offset="0.35" stop-color="#ed66fd"></stop><stop offset="0.37" stop-color="#ed6cfd"></stop><stop offset="0.69" stop-color="#f8fcfe"></stop><stop offset="1" stop-color="#f9fefd"></stop></linearGradient><linearGradient id="linear-gradient-32" x1="101.2" y1="271.97" x2="391.99" y2="271.97" gradientUnits="userSpaceOnUse"><stop offset="0.35" stop-color="#f567fe"></stop><stop offset="0.69" stop-color="#fff"></stop></linearGradient><linearGradient id="linear-gradient-33" x1="76.14" y1="122.73" x2="165.49" y2="122.73" gradientUnits="userSpaceOnUse"><stop offset="0" stop-color="#51e3cf" stop-opacity="0.3"></stop><stop offset="0.41" stop-color="#51e3cf" stop-opacity="0.61"></stop><stop offset="0.81" stop-color="#51e3cf" stop-opacity="0.89"></stop><stop offset="1" stop-color="#51e3cf"></stop></linearGradient><linearGradient id="linear-gradient-34" x1="157.43" x2="157.43" y2="484.39" gradientUnits="userSpaceOnUse"><stop offset="0" stop-color="#51e3cf"></stop><stop offset="0.03" stop-color="#4bd7d0"></stop><stop offset="0.27" stop-color="#2385d8"></stop><stop offset="0.44" stop-color="#0a52dc"></stop><stop offset="0.52" stop-color="#003ede"></stop><stop offset="1" stop-color="#ff69ff"></stop></linearGradient><linearGradient id="linear-gradient-35" x1="95.38" y1="475.37" x2="1253.36" y2="475.37" gradientUnits="userSpaceOnUse"><stop offset="0.25" stop-color="#ff69ff"></stop><stop offset="0.94" stop-color="#003ede"></stop></linearGradient></defs><g id="Calque_2" data-name="Calque 2"><g id="Layer_1" data-name="Layer 1"><path class="cls-1" d="M457.62,94.91q-13.56-7.69-31.44-7.69H383.81v121h43.53q17.54,0,30.86-7.61a54.09,54.09,0,0,0,20.86-21.27q7.51-13.65,7.53-31.36,0-18-7.7-31.69A55.31,55.31,0,0,0,457.62,94.91Zm2,74.72A33,33,0,0,1,446.2,183.7q-8.77,5-20.85,5H405V106.75h19.19q12.58,0,21.52,5a33.65,33.65,0,0,1,13.73,14.15q4.8,9.18,4.8,22.09Q464.24,160.54,459.61,169.63Z"></path><path class="cls-1" d="M529.94,159q-14.57,1.16-22.42,7.86t-7.86,18q0,11.41,7.53,18.45t20.44,7a36.19,36.19,0,0,0,17.13-4q7.51-4,10.17-10.26l1.49,12.08h17.71V158.54q0-11.41-4.3-19.11a27.61,27.61,0,0,0-12.25-11.58q-7.94-3.88-19-3.89a47.84,47.84,0,0,0-19.28,3.64,29.7,29.7,0,0,0-12.91,10.17,26.45,26.45,0,0,0-4.55,15.48H519a11.74,11.74,0,0,1,4.8-10q4.8-3.57,13.74-3.56a23.25,23.25,0,0,1,8.93,1.57,12.07,12.07,0,0,1,5.88,5,17.18,17.18,0,0,1,2.07,9v1.82Zm24.66,11.75v4.31q0,9.42-5.54,14.72t-15,5.3q-6.62,0-10.26-2.81T520.18,184a9.64,9.64,0,0,1,4-8c2.65-2,7.12-3.34,13.41-3.9Z"></path><path class="cls-1" d="M645.29,144.81v-18.7a25.79,25.79,0,0,0-4.63-.83c-1.44-.11-2.87-.17-4.3-.17q-9.76,0-15.89,5.14a22.2,22.2,0,0,0-6.27,8.41l-1.18-12H594v81.58h20.19V168.47q0-11.91,6.29-17.79t17.38-5.87Z"></path><path class="cls-1" d="M452.86,337.24a28.11,28.11,0,0,0,12.21-9.36q5.3-7.36,5.3-18.29,0-15.22-10.26-24t-28.3-8.77h-48v121h49q12.4,0,21.26-3.89a29.32,29.32,0,0,0,13.49-11.25A32.43,32.43,0,0,0,472.19,365q0-11.58-5.8-18.87A27.85,27.85,0,0,0,452.86,337.24ZM430,295.52q9.09,0,13.9,4.14t4.8,11.92q0,8.1-4.64,12.49t-13.4,4.39H405V295.52Zm15.72,79.28q-4.8,4.31-13.9,4.3H405V346.33h26.81q8.93,0,13.82,4.22t4.88,11.83Q450.51,370.5,445.71,374.8Z"></path><rect class="cls-1" x="488.9" y="274.67" width="20.03" height="123.13"></rect><path class="cls-1" d="M591.59,319.19a49.3,49.3,0,0,0-45.1,0,39.85,39.85,0,0,0-15.55,15.14,47.48,47.48,0,0,0,0,44.85,39.79,39.79,0,0,0,15.55,15.14,49.22,49.22,0,0,0,45.1,0,40,40,0,0,0,15.47-15.14,47.48,47.48,0,0,0,0-44.85A40,40,0,0,0,591.59,319.19Zm-2.07,50.64a21.79,21.79,0,0,1-8.27,8.77A23.49,23.49,0,0,1,569,381.75a23,23,0,0,1-12.16-3.15,22.58,22.58,0,0,1-8.28-8.77,29.63,29.63,0,0,1,0-26.23,22.78,22.78,0,0,1,8.28-8.69A23.13,23.13,0,0,1,569,331.77a23.58,23.58,0,0,1,12.25,3.14,22,22,0,0,1,8.27,8.69,30.35,30.35,0,0,1,0,26.23Z"></path><path class="cls-1" d="M677.65,378.27q-5.05,3.64-12.66,3.64a20,20,0,0,1-11.17-3.06,19.31,19.31,0,0,1-7.2-8.69,33,33,0,0,1-2.48-13.4,31.33,31.33,0,0,1,2.64-13.41,20.16,20.16,0,0,1,7.53-8.69,20.61,20.61,0,0,1,11.17-3.06,20.14,20.14,0,0,1,12.17,3.56,18.15,18.15,0,0,1,6.7,10.51h20.19q-1.65-14.73-12.33-23.42t-27.39-8.69a40.29,40.29,0,0,0-21.26,5.55,38.88,38.88,0,0,0-14.4,15.3A46.7,46.7,0,0,0,624,356.76q0,13.07,5,22.75a36.55,36.55,0,0,0,14.32,15.06Q652.58,400,665,400a43.86,43.86,0,0,0,19.2-4.05A36.92,36.92,0,0,0,698,384.64a35.75,35.75,0,0,0,6.71-16.79H684.35A17.4,17.4,0,0,1,677.65,378.27Z"></path><polygon class="cls-1" points="771.9 316.05 740.12 350.3 740.12 274.67 720.1 274.67 720.1 397.8 740.12 397.8 740.12 375.79 752.04 363.38 773.39 397.8 796.56 397.8 766.11 348.48 797.22 316.05 771.9 316.05"></polygon><path class="cls-1" d="M854.07,378.27q-5.05,3.64-12.66,3.64a20,20,0,0,1-11.17-3.06,19.31,19.31,0,0,1-7.2-8.69,32.94,32.94,0,0,1-2.49-13.4,31.32,31.32,0,0,1,2.65-13.41,20.16,20.16,0,0,1,7.53-8.69,20.58,20.58,0,0,1,11.17-3.06,20.14,20.14,0,0,1,12.17,3.56,18.2,18.2,0,0,1,6.7,10.51H881q-1.65-14.73-12.33-23.42t-27.39-8.69A40.35,40.35,0,0,0,820,319.11a38.93,38.93,0,0,0-14.39,15.3,46.7,46.7,0,0,0-5.22,22.35q0,13.07,5,22.75a36.55,36.55,0,0,0,14.32,15.06Q829,400,841.41,400a43.79,43.79,0,0,0,19.19-4.05,36.88,36.88,0,0,0,13.82-11.26,35.75,35.75,0,0,0,6.71-16.79H860.77A17.4,17.4,0,0,1,854.07,378.27Z"></path><path class="cls-1" d="M943,313.56a33.92,33.92,0,0,0-15.81,3.56,27.16,27.16,0,0,0-10.67,9.52v-52H896.18V397.8h20.19V353.12a24.16,24.16,0,0,1,2.4-10.93,18,18,0,0,1,7-7.53,20.7,20.7,0,0,1,10.84-2.73,17.35,17.35,0,0,1,8.94,2.24,15.12,15.12,0,0,1,6,6.7,26.41,26.41,0,0,1,2.15,11.42V397.8H973.8V347.49q0-15.72-7.86-24.83T943,313.56Z"></path><path class="cls-1" d="M1047.94,317.45q-7.93-3.88-19-3.89a48,48,0,0,0-19.28,3.64,29.77,29.77,0,0,0-12.91,10.18,26.45,26.45,0,0,0-4.55,15.48h17.21a11.75,11.75,0,0,1,4.8-10q4.8-3.55,13.74-3.55a23.21,23.21,0,0,1,8.93,1.57,12.1,12.1,0,0,1,5.88,5,17.18,17.18,0,0,1,2.07,9v1.82l-24.49,2q-14.56,1.16-22.43,7.86t-7.86,18q0,11.41,7.53,18.45t20.44,7a36.13,36.13,0,0,0,17.13-4q7.53-4,10.18-10.26l1.48,12.08h17.71V348.15q0-11.41-4.3-19.11A27.68,27.68,0,0,0,1047.94,317.45Zm-3,47.25q0,9.44-5.54,14.73t-15,5.3q-6.62,0-10.26-2.82t-3.64-8.27a9.68,9.68,0,0,1,4-8q4-3.06,13.41-3.89l17-1.32Z"></path><rect class="cls-1" x="1084.35" y="316.05" width="20.19" height="81.75"></rect><path class="cls-1" d="M1094.28,275.33a12,12,0,0,0-8.69,3.48,11.56,11.56,0,0,0-3.55,8.6,12.25,12.25,0,1,0,24.49,0,11.57,11.57,0,0,0-3.56-8.6A12,12,0,0,0,1094.28,275.33Z"></path><path class="cls-1" d="M1195.15,322.66q-7.86-9.09-23.25-9.1a34,34,0,0,0-15.31,3.48,26,26,0,0,0-10.84,9.6l-1.65-10.59h-18.71V397.8h20.2v-44q0-9.93,5.29-15.89t14.73-6q8,0,12.58,5.05t4.63,15.31V397.8H1203V347.49Q1203,331.77,1195.15,322.66Z"></path><path class="cls-1" d="M17.16,161.38C17.16,81.73,80,17.16,157.6,17.16S298.05,81.73,298.05,161.38a146.85,146.85,0,0,1-14.81,64.52l14.81,15.38v226H17.16V241.28L32,225.9A146.85,146.85,0,0,1,17.16,161.38Z"></path><path class="cls-2" d="M308,478.27,280.9,453.44,115.77,302.32,24.65,218.94c-.34.45-.7.9-1.08,1.34l91,83.3L279.75,454.7l28.17,25.79Z"></path><path class="cls-3" d="M308.82,455.64l-26.71-22.05L120,299.66,23.69,220.13q-.56.66-1.14,1.29L118.88,301,281,434.91l27.75,22.92C308.79,457.1,308.8,456.37,308.82,455.64Z"></path><path class="cls-4" d="M308.88,432.48l-25.56-18.75L124.17,297,22,222l-.91.91c0,.15-.07.32-.11.47l102.22,75L282.3,415.11l26.6,19.52C308.9,433.91,308.89,433.2,308.88,432.48Z"></path><path class="cls-5" d="M308.52,409.17l-24-15.29L128.37,294.34,20.3,225.46c-.2.55-.42,1.08-.66,1.61l107.8,68.72,156.15,99.53,25,15.92C308.54,410.55,308.53,409.86,308.52,409.17Z"></path><path class="cls-6" d="M308,386,285.7,374,132.55,291.68,17.84,230a14.53,14.53,0,0,1-1.17,1.32l115.07,61.85,153.15,82.34L308,388C308,387.31,308,386.65,308,386Z"></path><path class="cls-7" d="M307.54,363.12l-20.66-9L136.72,289,12.13,235c-.07.59-.15,1.18-.23,1.77L136,290.6,286.2,355.74,307.57,365Z"></path><path class="cls-8" d="M307.2,340.55l-19.15-6.24L140.89,286.37,10.92,244l-.24,1.72L140.36,288l147.16,47.94,19.73,6.43C307.23,341.76,307.22,341.15,307.2,340.55Z"></path><path class="cls-9" d="M306,318l-16.76-3.58L9.48,254.8l-.21,1.71,135.41,28.88,144.17,30.75,17.28,3.69C306.08,319.23,306,318.63,306,318Z"></path><path class="cls-10" d="M303.82,295.92l-13.47-1.3L149.18,281.07,8.12,267.53c0,.57-.09,1.14-.14,1.71l141,13.54,141.17,13.55L304,297.66Z"></path><path class="cls-11" d="M301.77,274.52l-10.28.28-138.17,3.64L15.14,282.09l-7.69.2c0,.57,0,1.14,0,1.72l7.74-.21,276.36-7.29,10.38-.27C301.87,275.67,301.81,275.1,301.77,274.52Z"></path><path class="cls-12" d="M300.47,253.77,292.63,255,157.45,275.82,22.27,296.66,7.66,298.92c0,.57,0,1.15,0,1.72l14.82-2.28,135.18-20.84,135.18-20.84,7.64-1.18Z"></path><path class="cls-13" d="M300.45,233.26l-6.68,1.92-132.19,38-132.19,38-21.21,6.1c0,.59,0,1.18,0,1.77l21.65-6.23,132.18-38,132.19-38,6.15-1.77C300.41,234.46,300.42,233.86,300.45,233.26Z"></path><path class="cls-14" d="M301.81,212.44l-6.9,2.95L36.53,325.86,7.92,338.09c0,.59-.06,1.18-.1,1.78a.57.57,0,0,1,0,.13L37.2,327.44,166.39,272.2,295.58,217l6.09-2.6C301.72,213.72,301.76,213.08,301.81,212.44Z"></path><path class="cls-15" d="M303.15,191.54l-7.09,4.07L43.67,340.47,6,362.11c0,.69-.09,1.37-.14,2.06L44.53,342l126.19-72.43,126.2-72.43,6.12-3.52C303.08,192.9,303.12,192.22,303.15,191.54Z"></path><path class="cls-16" d="M303.68,171.14l-6.45,4.7L174,265.46,50.83,355.09,5.17,388.31c0,.71,0,1.42,0,2.13l46.68-34L175,266.85l123.2-89.62,5.44-4Z"></path><path class="cls-17" d="M302.86,152.1l-4.45,4L58,369.71,5.36,416.49c0,.76,0,1.52,0,2.28L59.14,371,299.55,157.35l3.49-3.11C303,153.53,302.93,152.82,302.86,152.1Z"></path><path class="cls-18" d="M301,137.33c0-.22-.07-.44-.11-.66-.08-.48-.18-1-.27-1.44l-1,1.06-117.21,124-117.21,124-58.6,62-1.8,1.94c0,.82,0,1.64-.07,2.47l3.11-3.23,58.61-62,234.41-248Z"></path><path class="cls-19" d="M15.05,472.52l1.55-1.89L73.71,400,187.92,258.81,297.63,123.16c-.2-.66-.4-1.31-.61-2L186.58,257.73,72.37,399l-57.1,70.61-2.35,3Z"></path><path class="cls-20" d="M292.79,109.86l-102,145.29L79.57,413.56l-40.86,58.2,2.39-.42L81,414.55l212.6-302.81C293.31,111.11,293.06,110.49,292.79,109.86Z"></path><path class="cls-21" d="M288.56,100.75,195,252.57,86.78,428.17,61.35,469.43l2.07-.09,24.82-40.27,108.22-175.6,93-150.91Z"></path><path class="cls-22" d="M284.65,93.44,199.21,250,94,442.78,79.6,469.14l1.93,0,14-25.58L200.72,250.8,285.63,95.22C285.31,94.62,285,94,284.65,93.44Z"></path><path class="cls-23" d="M281.29,87.46,101.21,457.38l-6,12.37,1.84.13,5.72-11.74L282.31,89.27Z"></path><path class="cls-24" d="M278.53,82.52,207.66,244.79l-98.6,225.73h1.88l98.29-225L279.58,84.41Z"></path><path class="cls-25" d="M276.35,78.5,211.89,242.19,122,470.47h1.84l89.65-227.65L277.41,80.48C277.05,79.82,276.7,79.16,276.35,78.5Z"></path><path class="cls-26" d="M274.67,75.31,216.12,239.59l-82.3,230.88h1.82l82.09-230.31,58-162.77Z"></path><path class="cls-27" d="M273.46,72.91,220.35,237,144.76,470.47h1.8l75.42-233L274.56,75.09C274.19,74.37,273.82,73.64,273.46,72.91Z"></path><path class="cls-28" d="M272.66,71.28l-48.08,163.1L155,470.47h1.79l69.45-235.61L273.78,73.55C273.4,72.8,273,72,272.66,71.28Z"></path><path class="cls-29" d="M272.23,70.38,228.81,231.77l-64.22,238.7h1.78l64.1-238.26,42.9-159.47Z"></path><path class="cls-30" d="M272.15,70.2l-39.1,159L173.69,470.47h1.77l59.25-240.9L273.32,72.62C272.92,71.82,272.53,71,272.15,70.2Z"></path><path class="cls-31" d="M272.38,70.69l-35.1,155.86L182.35,470.47h1.76L239,226.92,273.58,73.16C273.17,72.34,272.77,71.51,272.38,70.69Z"></path><path class="cls-32" d="M272.91,71.8,241.52,223.93,190.64,470.47h1.75L243.2,224.28l30.95-150C273.73,73.47,273.32,72.64,272.91,71.8Z"></path><path class="cls-33" d="M273.73,73.46l-28,147.86L198.61,470.47h1.74l47.09-248.83L275,76C274.57,75.13,274.15,74.29,273.73,73.46Z"></path><path class="cls-34" d="M17.16,161.38C17.16,81.73,80,17.16,157.43,17.16S297.71,81.73,297.71,161.38a147,147,0,0,1-14.79,64.52l14.79,15.38v226H17.16V241.28L32,225.9A147,147,0,0,1,17.16,161.38Z"></path><circle class="cls-35" cx="120.81" cy="122.73" r="44.68"></circle><circle class="cls-36" cx="120.81" cy="122.73" r="44.68"></circle><path class="cls-37" d="M157.43,17.16c77.48,0,140.28,64.57,140.28,144.22a147,147,0,0,1-14.79,64.52l14.79,15.38v226H17.16V241.28L32,225.9a147,147,0,0,1-14.79-64.52C17.16,81.73,80,17.16,157.43,17.16m0-17.16A153.1,153.1,0,0,0,96,12.76a156.72,156.72,0,0,0-50,34.68A161.37,161.37,0,0,0,12.31,98.71a165.66,165.66,0,0,0-.7,123.59l-6.82,7.09-4.79,5v250H314.87v-250l-4.79-5-6.82-7.09a165.66,165.66,0,0,0-.7-123.59,161.23,161.23,0,0,0-33.64-51.27,156.57,156.57,0,0,0-50-34.68A153.11,153.11,0,0,0,157.43,0Z"></path><rect class="cls-38" x="383.98" y="466.74" width="819.33" height="17.25"></rect><path class="cls-1" d="M23.28,535.72H.91v71H23.28q17,0,26.19-9.25t9.2-26.78q0-17-9.2-26T23.28,535.72Zm22.21,58q-7.58,8.07-21.78,8.07H6.29v-61.1H23.71q14.2,0,21.78,7.8t7.59,22.21Q53.08,585.64,45.49,593.7Z"></path><path class="cls-1" d="M110.84,555.08a23.13,23.13,0,0,0-12.48-3.22,24.65,24.65,0,0,0-12.75,3.33,23.48,23.48,0,0,0-8.93,9.63,36,36,0,0,0,0,30,23.16,23.16,0,0,0,9.09,9.62A26.07,26.07,0,0,0,99,607.79a27,27,0,0,0,9.25-1.51,23.71,23.71,0,0,0,7.43-4.25,20.67,20.67,0,0,0,5.16-6.61l-4.3-2.47a18.53,18.53,0,0,1-6.94,7.42,20.41,20.41,0,0,1-10.7,2.69,20.2,20.2,0,0,1-10.6-2.75,18.3,18.3,0,0,1-7.1-8,27.89,27.89,0,0,1-2.5-11.4h42.68c.07-.5.12-1.06.16-1.67s0-1.24,0-1.88a30.13,30.13,0,0,0-2.79-13.29A21.39,21.39,0,0,0,110.84,555.08ZM88,559.33a18.94,18.94,0,0,1,10.22-2.74q8.39,0,13.18,5.48,4.57,5.26,4.86,14H78.86a26.22,26.22,0,0,1,2.29-8.77A18.33,18.33,0,0,1,88,559.33Z"></path><path class="cls-1" d="M175,597.14a15.29,15.29,0,0,1-6.14,4.41,21.72,21.72,0,0,1-8.22,1.51,19.35,19.35,0,0,1-10.44-2.75,18.3,18.3,0,0,1-6.88-8,32.77,32.77,0,0,1,0-25,18.11,18.11,0,0,1,7-8,19.68,19.68,0,0,1,10.43-2.74,17.59,17.59,0,0,1,10.81,3.17,16.68,16.68,0,0,1,6,9l5.06-2.36a21.88,21.88,0,0,0-4.63-7.85,19.75,19.75,0,0,0-7.31-4.95,26.14,26.14,0,0,0-9.79-1.72,25.62,25.62,0,0,0-13.07,3.33,23.18,23.18,0,0,0-9,9.63,32,32,0,0,0-3.28,15,32.56,32.56,0,0,0,3.22,15,22.92,22.92,0,0,0,9,9.62,25.55,25.55,0,0,0,13.07,3.34,26.13,26.13,0,0,0,10.11-1.88,20.93,20.93,0,0,0,7.69-5.44,21.16,21.16,0,0,0,4.58-8.49l-5-1.72A14.89,14.89,0,0,1,175,597.14Z"></path><path class="cls-1" d="M233.46,555.08A23.13,23.13,0,0,0,221,551.86a24.65,24.65,0,0,0-12.75,3.33,23.48,23.48,0,0,0-8.93,9.63,36,36,0,0,0,0,30,23.16,23.16,0,0,0,9.09,9.62,26.07,26.07,0,0,0,13.23,3.34,27,27,0,0,0,9.25-1.51A23.71,23.71,0,0,0,238.3,602a20.67,20.67,0,0,0,5.16-6.61l-4.3-2.47a18.53,18.53,0,0,1-6.94,7.42,20.41,20.41,0,0,1-10.7,2.69,20.2,20.2,0,0,1-10.6-2.75,18.3,18.3,0,0,1-7.1-8,27.89,27.89,0,0,1-2.5-11.4H244c.07-.5.12-1.06.16-1.67s.05-1.24.05-1.88a30.13,30.13,0,0,0-2.79-13.29A21.39,21.39,0,0,0,233.46,555.08Zm-22.81,4.25a18.94,18.94,0,0,1,10.22-2.74q8.38,0,13.18,5.48,4.57,5.26,4.86,14H201.48a26.22,26.22,0,0,1,2.29-8.77A18.33,18.33,0,0,1,210.65,559.33Z"></path><path class="cls-1" d="M297.56,554.12a23.9,23.9,0,0,0-10.65-2.26,25.69,25.69,0,0,0-9,1.56,19.15,19.15,0,0,0-7.21,4.68,19.37,19.37,0,0,0-3.74,5.58l-.35-10.75h-4.84v53.78h5.38V576.38a20.1,20.1,0,0,1,2.74-10.76,18.5,18.5,0,0,1,7.1-6.72,19.81,19.81,0,0,1,9.42-2.31q7,0,11.34,4.09t4.36,12.9v33.13h5.38V571.86a21.28,21.28,0,0,0-2.64-11.08A16.93,16.93,0,0,0,297.56,554.12Z"></path><path class="cls-1" d="M350.54,601.82a13.1,13.1,0,0,1-5.33,1q-4.62,0-7-2.63c-1.62-1.76-2.42-4.32-2.42-7.7v-35h20.11v-4.63H335.75V538l-5.38,1.51v13.44H319.61v4.63h10.76v35.71a16.84,16.84,0,0,0,1.77,8.17,11.2,11.2,0,0,0,5,4.79,16.83,16.83,0,0,0,7.42,1.56,18.72,18.72,0,0,0,7-1.24,14.94,14.94,0,0,0,5.16-3.28l-2-4.41A12.78,12.78,0,0,1,350.54,601.82Z"></path><path class="cls-1" d="M392.11,551.86a17.79,17.79,0,0,0-10.86,3.33,18.82,18.82,0,0,0-6.56,8.93L374,552.93h-4.52v53.78h5.38V576.6a22.42,22.42,0,0,1,2.26-10.28,18.47,18.47,0,0,1,5.92-7,13.39,13.39,0,0,1,7.74-2.53,15.5,15.5,0,0,1,4.19.43,10.73,10.73,0,0,1,2.59,1.19l1.29-4.74a7.3,7.3,0,0,0-2.91-1.39A15.8,15.8,0,0,0,392.11,551.86Z"></path><path class="cls-1" d="M449.23,597.25V570.36a19.41,19.41,0,0,0-2.48-10.22,15.73,15.73,0,0,0-6.93-6.19,24.32,24.32,0,0,0-10.38-2.09q-8.18,0-13.72,3.49a19.2,19.2,0,0,0-7.9,9.84l4.41,2.8q2.14-6.13,6.56-8.77a20.23,20.23,0,0,1,10.54-2.63q7,0,10.75,3.87t3.77,10.86v3.55l-21.19,4.2q-7.32,1.39-11.35,5.11a12.59,12.59,0,0,0-4,9.73,12.42,12.42,0,0,0,2.26,7.59,14.11,14.11,0,0,0,6.24,4.68,24,24,0,0,0,9,1.61,27,27,0,0,0,8.61-1.45,20.81,20.81,0,0,0,7.58-4.52,14,14,0,0,0,2.79-3.63,11.05,11.05,0,0,0,1.3,5.08,7.73,7.73,0,0,0,3.49,3.23,11.27,11.27,0,0,0,4.63,1,10.17,10.17,0,0,0,4.73-1l.32-4.3a9.09,9.09,0,0,1-3.87.75Q449.23,603,449.23,597.25Zm-11.35,2.2a19.3,19.3,0,0,1-6,2.75,24.74,24.74,0,0,1-6.35.86c-4.08,0-7.24-.85-9.46-2.53a8.34,8.34,0,0,1-3.34-7,8.08,8.08,0,0,1,3.12-6.67q3.12-2.46,9.47-3.76l18.5-3.66v8.39a13.94,13.94,0,0,1-1.61,6.94A14.09,14.09,0,0,1,437.88,599.45Z"></path><path class="cls-1" d="M483.54,603.06q-3.66,0-5.38-2t-1.72-7V528.19h-5.38v66q0,7,2.85,10.27t8.55,3.28a19,19,0,0,0,3.93-.38,14.93,14.93,0,0,0,3.17-1l.76-4.73a21.58,21.58,0,0,1-3.18,1.07A15.61,15.61,0,0,1,483.54,603.06Z"></path><rect class="cls-1" x="503.11" y="552.93" width="5.38" height="53.78"></rect><path class="cls-1" d="M505.8,533.46a4.52,4.52,0,1,0,0,9,4.52,4.52,0,1,0,0-9Z"></path><polygon class="cls-1" points="531.73 602.2 538.18 594.99 568.83 557.13 568.83 552.93 525.27 552.93 525.27 557.56 554.31 557.56 562.81 557.45 557.22 563.69 525.59 602.52 525.59 606.71 570.13 606.71 570.13 602.09 541.41 602.09 531.73 602.2"></polygon><path class="cls-1" d="M619,555.08a23.08,23.08,0,0,0-12.48-3.22,24.59,24.59,0,0,0-12.74,3.33,23.35,23.35,0,0,0-8.93,9.63,36,36,0,0,0,0,30,23,23,0,0,0,9.09,9.62,26,26,0,0,0,13.23,3.34,27.07,27.07,0,0,0,9.25-1.51A23.66,23.66,0,0,0,623.8,602a20.67,20.67,0,0,0,5.16-6.61l-4.3-2.47a18.46,18.46,0,0,1-6.94,7.42,22.21,22.21,0,0,1-21.3-.06,18.28,18.28,0,0,1-7.09-8,27.89,27.89,0,0,1-2.51-11.4H629.5c.07-.5.12-1.06.16-1.67s.06-1.24.06-1.88a30.13,30.13,0,0,0-2.8-13.29A21.39,21.39,0,0,0,619,555.08Zm-22.8,4.25a18.91,18.91,0,0,1,10.21-2.74q8.4,0,13.18,5.48,4.59,5.26,4.86,14H587a26.22,26.22,0,0,1,2.29-8.77A18.28,18.28,0,0,1,596.16,559.33Z"></path><rect class="cls-1" x="683.06" y="552.93" width="5.38" height="53.78"></rect><path class="cls-1" d="M685.75,533.46a4.52,4.52,0,1,0,0,9,4.52,4.52,0,1,0,0-9Z"></path><path class="cls-1" d="M745.66,554.12A23.89,23.89,0,0,0,735,551.86a25.74,25.74,0,0,0-9,1.56,19.15,19.15,0,0,0-7.21,4.68,19.37,19.37,0,0,0-3.74,5.58l-.34-10.75h-4.84v53.78h5.37V576.38A20,20,0,0,1,718,565.62a18.44,18.44,0,0,1,7.1-6.72,19.77,19.77,0,0,1,9.41-2.31q7,0,11.35,4.09t4.35,12.9v33.13h5.38V571.86a21.38,21.38,0,0,0-2.63-11.08A16.9,16.9,0,0,0,745.66,554.12Z"></path><path class="cls-1" d="M817.09,564.76a18.9,18.9,0,0,0-6.51-8.92,20.65,20.65,0,0,0-12.75-4,25,25,0,0,0-12.69,3.28,23.42,23.42,0,0,0-9,9.52,31.83,31.83,0,0,0-3.33,15.16,33.08,33.08,0,0,0,3.17,15,22.9,22.9,0,0,0,8.77,9.62,24,24,0,0,0,12.58,3.34,23.61,23.61,0,0,0,9.42-1.88,19,19,0,0,0,7.31-5.54,18.59,18.59,0,0,0,3.33-6.38l.27,12.72h4.84V528.19h-5.37ZM814.66,592a18.82,18.82,0,0,1-6.72,8.23,17.69,17.69,0,0,1-10,2.85q-9.15,0-14.47-6.24t-5.32-17q0-10.76,5.38-17t14.62-6.24a17.77,17.77,0,0,1,9.85,2.74,18.5,18.5,0,0,1,6.66,7.85,28.23,28.23,0,0,1,2.43,12.21A30.34,30.34,0,0,1,814.66,592Z"></path><path class="cls-1" d="M882.91,583.8a20.49,20.49,0,0,1-1.34,7.37,19.41,19.41,0,0,1-3.82,6.19,17.29,17.29,0,0,1-6,4.19,19.59,19.59,0,0,1-7.8,1.51q-7.32,0-11.35-3.77t-4-12.15V552.93h-5.38v35.5a21.47,21.47,0,0,0,2.53,10.92,15.31,15.31,0,0,0,6.94,6.39,23.4,23.4,0,0,0,10,2,24.44,24.44,0,0,0,12.8-3.23,18.37,18.37,0,0,0,7.75-8.93l.21,11.08h4.84V552.93h-5.38Z"></path><path class="cls-1" d="M935.08,579.07l-12.91-2.8c-3.65-.79-6.2-2-7.63-3.71a8.44,8.44,0,0,1-2.15-5.65,8.16,8.16,0,0,1,1.88-5.32,12.63,12.63,0,0,1,5.27-3.66,21.46,21.46,0,0,1,7.9-1.34,19.82,19.82,0,0,1,10.28,2.58,13.38,13.38,0,0,1,6,8.28l4.51-2.9a17.07,17.07,0,0,0-7.42-9.52q-5.26-3.18-13.34-3.17a25.6,25.6,0,0,0-10.7,2.09,18.22,18.22,0,0,0-7.15,5.54,12.61,12.61,0,0,0-2.58,7.75,12.43,12.43,0,0,0,3.33,8.76q3.33,3.62,11,5.22l12.59,2.69c3.65.79,6.15,2,7.47,3.5a8,8,0,0,1,2,5.43,8.62,8.62,0,0,1-4,7.42q-4,2.79-11.13,2.8a23.6,23.6,0,0,1-12.21-3,15.51,15.51,0,0,1-6.94-8.34l-4.62,3.12a18.67,18.67,0,0,0,8.87,9.57,30.35,30.35,0,0,0,14.47,3.34,30,30,0,0,0,11.08-1.88,16,16,0,0,0,7.31-5.49,14,14,0,0,0,2.58-8.34,11.56,11.56,0,0,0-3-8.12Q942.72,580.69,935.08,579.07Z"></path><path class="cls-1" d="M989.78,601.82a13.13,13.13,0,0,1-5.33,1q-4.62,0-7-2.63c-1.62-1.76-2.42-4.32-2.42-7.7v-35H995.1v-4.63H975V538l-5.38,1.51v13.44H958.85v4.63h10.76v35.71a16.84,16.84,0,0,0,1.77,8.17,11.18,11.18,0,0,0,5,4.79,16.91,16.91,0,0,0,7.43,1.56,18.72,18.72,0,0,0,7-1.24,14.94,14.94,0,0,0,5.16-3.28l-2-4.41A12.78,12.78,0,0,1,989.78,601.82Z"></path><path class="cls-1" d="M1031.35,551.86a17.84,17.84,0,0,0-10.87,3.33,18.82,18.82,0,0,0-6.56,8.93l-.64-11.19h-4.52v53.78h5.38V576.6a22.42,22.42,0,0,1,2.26-10.28,18.36,18.36,0,0,1,5.91-7,13.44,13.44,0,0,1,7.75-2.53,15.5,15.5,0,0,1,4.19.43,10.84,10.84,0,0,1,2.58,1.19l1.29-4.74a7.26,7.26,0,0,0-2.9-1.39A15.86,15.86,0,0,0,1031.35,551.86Z"></path><rect class="cls-1" x="1051.57" y="552.93" width="5.38" height="53.78"></rect><path class="cls-1" d="M1054.26,533.46a4.26,4.26,0,1,0,3.28,1.24A4.43,4.43,0,0,0,1054.26,533.46Z"></path><path class="cls-1" d="M1112.13,555.08a23.13,23.13,0,0,0-12.48-3.22,24.65,24.65,0,0,0-12.75,3.33,23.48,23.48,0,0,0-8.93,9.63,36,36,0,0,0,0,30,23.16,23.16,0,0,0,9.09,9.62,26.07,26.07,0,0,0,13.23,3.34,27,27,0,0,0,9.25-1.51A23.71,23.71,0,0,0,1117,602a20.67,20.67,0,0,0,5.16-6.61l-4.3-2.47a18.53,18.53,0,0,1-6.94,7.42,20.41,20.41,0,0,1-10.7,2.69,20.2,20.2,0,0,1-10.6-2.75,18.3,18.3,0,0,1-7.1-8,27.89,27.89,0,0,1-2.5-11.4h42.68c.07-.5.12-1.06.16-1.67s.05-1.24.05-1.88a30.13,30.13,0,0,0-2.79-13.29A21.39,21.39,0,0,0,1112.13,555.08Zm-22.81,4.25a18.94,18.94,0,0,1,10.22-2.74q8.39,0,13.18,5.48,4.58,5.26,4.86,14h-37.43a26.22,26.22,0,0,1,2.29-8.77A18.33,18.33,0,0,1,1089.32,559.33Z"></path><path class="cls-1" d="M1165.91,579.07l-12.91-2.8c-3.66-.79-6.21-2-7.64-3.71a8.49,8.49,0,0,1-2.15-5.65,8.22,8.22,0,0,1,1.88-5.32,12.69,12.69,0,0,1,5.27-3.66,21.52,21.52,0,0,1,7.91-1.34,19.78,19.78,0,0,1,10.27,2.58,13.38,13.38,0,0,1,6,8.28l4.52-2.9a17.12,17.12,0,0,0-7.42-9.52q-5.28-3.18-13.34-3.17a25.53,25.53,0,0,0-10.7,2.09,18.25,18.25,0,0,0-7.16,5.54,12.61,12.61,0,0,0-2.58,7.75,12.4,12.4,0,0,0,3.34,8.76q3.33,3.62,11,5.22l12.58,2.69c3.66.79,6.15,2,7.48,3.5a8.09,8.09,0,0,1,2,5.43,8.63,8.63,0,0,1-4,7.42c-2.68,1.86-6.4,2.8-11.13,2.8a23.65,23.65,0,0,1-12.21-3,15.54,15.54,0,0,1-6.93-8.34l-4.63,3.12a18.71,18.71,0,0,0,8.87,9.57,30.38,30.38,0,0,0,14.47,3.34,30,30,0,0,0,11.08-1.88,16,16,0,0,0,7.31-5.49,13.89,13.89,0,0,0,2.59-8.34,11.57,11.57,0,0,0-3-8.12Q1173.55,580.69,1165.91,579.07Z"></path><path class="cls-1" d="M1202.64,599.24a5.23,5.23,0,1,0,1.34,3.49A4.72,4.72,0,0,0,1202.64,599.24Z"></path></g></g></svg>